# xmcd
#
# Track frame offsets:
#	150
#	10692
#	21050
#	30448
#	39683
#	49766
#	59624
#	70691
#	79611
#	89399
#	98558
#	108408
#	118231
#	130009
#	138776
#	151626
#	161764
#	173959
#	183406
#	192864
#	202507
#	211501
#	220744
#	230536
#	240392
#
# Disc length: 3334 seconds
#
# Revision: 0
# Processed by: cddbd v1.5.2PL0 Copyright (c) Steve Scherf et al.
# Submitted via: EasyCDDAExtractor 10.0.2.1
#
DISCID=370d0419
DTITLE=Jim Reeves - Gentleman Jim - 1955-1959 - Disc 03
DYEAR=1989
DGENRE=Country
TTITLE0=He'll Have To Go
TTITLE1=In A Mansion Stands My Love
TTITLE2=Billy Bayou
TTITLE3=I'd Like To Be
TTITLE4=Partners
TTITLE5=I'm Beginning To Forget You
TTITLE6=If Heartache Is The Fashion
TTITLE7=Home
TTITLE8=After Awhile
TTITLE9=Overnight
TTITLE10=Blue Boy
TTITLE11=Charmaine
TTITLE12=Mona Lisa
TTITLE13=Marie
TTITLE14=Goodnight Irene
TTITLE15=Linda
TTITLE16=Maria Alena
TTITLE17=My Mary
TTITLE18=Ramona
TTITLE19=Margie
TTITLE20=My Juanita
TTITLE21=Sweet Sue, Just You
TTITLE22=Snowflake
TTITLE23=But You Love Me Daddy (Steve Moore)
TTITLE24=But You Love Me Daddy (Dottie Dillard)
EXTD=
EXTT0=
EXTT1=
EXTT2=
EXTT3=
EXTT4=
EXTT5=
EXTT6=
EXTT7=
EXTT8=
EXTT9=
EXTT10=
EXTT11=
EXTT12=
EXTT13=
EXTT14=
EXTT15=
EXTT16=
EXTT17=
EXTT18=
EXTT19=
EXTT20=
EXTT21=
EXTT22=
EXTT23=
EXTT24=
PLAYORDER=
